# File created by Blade
# Date/Time:  Fri Jan 16 17:25:32 2015
#---------------------------------------------------------
:version 1.10
:name HOM
:units
  mass 1.0
  length 1.000000
  angle deg
:documentation
     Acclaim Skeleton File
:root
   axis xyz
   order TX TY TZ RX RY RZ
   position 0.000000 0.000000 0.000000
   orientation 0 0 0
:bonedata
   begin
      id 1
      name Spine_dum
      direction 0.000000 1.000000 0.000000
      length 7.170412
      axis 0.0 0.0 0.0 xyz
   end
   begin
      id 2
      name LeftUpLeg_dum
      direction 1.000000 0.000000 0.000000
      length 4.318350
      axis 0.0 0.0 0.0 xyz
   end
   begin
      id 3
      name RightUpLeg_dum
      direction -1.000000 0.000000 0.000000
      length 4.318350
      axis 0.0 0.0 0.0 xyz
   end
   begin
      id 4
      name Spine
      direction 0.000000 1.000000 0.000000
      length 0.000000
      axis 0.0 0.0 0.0 xyz
      dof rx ry rz
   end
   begin
      id 5
      name Spine_dum1
      direction 0.000000 1.000000 0.000000
      length 14.276153
      axis 0.0 0.0 0.0 xyz
   end
   begin
      id 6
      name Spine_dum2
      direction 0.000000 1.000000 0.000000
      length 10.718243
      axis 0.0 0.0 0.0 xyz
   end
   begin
      id 7
      name Spine_dum3
      direction 0.000000 1.000000 0.000000
      length 10.718243
      axis 0.0 0.0 0.0 xyz
   end
   begin
      id 8
      name Head
      direction 0.000000 1.000000 0.000000
      length 4.527550
      axis 0.0 0.0 0.0 xyz
      dof rx ry rz
   end
   begin
      id 9
      name LeftShoulder
      direction 1.000000 0.000000 0.000000
      length 7.058872
      axis 0.0 0.0 -90.0 xyz
      dof rx ry rz
   end
   begin
      id 10
      name LeftArm
      direction 1.000000 0.000000 0.000000
      length 10.955525
      axis 0.0 0.0 -90.0 xyz
      dof rx ry rz
   end
   begin
      id 11
      name LeftForeArm
      direction 1.000000 0.000000 0.000000
      length 8.193716
      axis 0.0 0.0 -90.0 xyz
      dof ry rz rx
   end
   begin
      id 12
      name LeftHand
      direction 0.000000 0.000000 0.000000
      length 0.000000
      axis 0.0 0.0 -90.0 xyz
      dof rx ry rz
   end
   begin
      id 13
      name LeftHand_dum1
      direction 0.000000 0.000000 0.000000
      length 0.000000
      axis 0.0 0.0 -90.0 xyz
   end
   begin
      id 14
      name LeftHand_dum2
      direction 1.000000 0.000000 0.000000
      length 3.937000
      axis 0.0 0.0 -90.0 xyz
   end
   begin
      id 15
      name LeftHandThumb1
      direction 0.000000 0.000000 1.000000
      length 3.937000
      axis 0.0 0.0 -90.0 xyz
      dof rx rz ry
   end
   begin
      id 16
      name RightShoulder
      direction -1.000000 0.000000 0.000000
      length 7.058872
      axis 0.0 0.0 90.0 xyz
      dof rx ry rz
   end
   begin
      id 17
      name RightArm
      direction -1.000000 0.000000 0.000000
      length 10.955525
      axis 0.0 0.0 90.0 xyz
      dof rx ry rz
   end
   begin
      id 18
      name RightForeArm
      direction -1.000000 0.000000 0.000000
      length 8.193716
      axis 0.0 0.0 90.0 xyz
      dof ry rz rx
   end
   begin
      id 19
      name RightHand
      direction 0.000000 0.000000 0.000000
      length 0.000000
      axis 0.0 0.0 90.0 xyz
      dof rx ry rz
   end
   begin
      id 20
      name RightHand_dum1
      direction 0.000000 0.000000 0.000000
      length 0.000000
      axis 0.0 0.0 90.0 xyz
   end
   begin
      id 21
      name RightHand_dum2
      direction -1.000000 0.000000 0.000000
      length 3.937000
      axis 0.0 0.0 90.0 xyz
   end
   begin
      id 22
      name RightHandThumb1
      direction 0.000000 0.000000 1.000000
      length 3.937000
      axis 0.0 0.0 90.0 xyz
      dof rx rz ry
   end
   begin
      id 23
      name LeftUpLeg
      direction 0.000000 -1.000000 0.000000
      length 17.323638
      axis 0.0 0.0 0.0 xyz
      dof rx ry rz
   end
   begin
      id 24
      name LeftLeg
      direction 0.000000 -1.000000 0.000000
      length 16.270368
      axis 0.0 0.0 0.0 xyz
      dof rx ry rz
   end
   begin
      id 25
      name LeftFoot
      direction 0.000000 -0.258819 0.965926
      length 4.922846
      axis 15.0 0.0 0.0 xyz
      dof rx ry rz
   end
   begin
      id 26
      name LeftToeBase
      direction 0.000000 0.000000 1.000000
      length 2.952750
      axis 0.0 0.0 0.0 xyz
      dof rx ry rz
   end
   begin
      id 27
      name RightUpLeg
      direction 0.000000 -1.000000 0.000000
      length 17.323638
      axis 0.0 0.0 0.0 xyz
      dof rx ry rz
   end
   begin
      id 28
      name RightLeg
      direction 0.000000 -1.000000 0.000000
      length 16.270368
      axis 0.0 0.0 0.0 xyz
      dof rx ry rz
   end
   begin
      id 29
      name RightFoot
      direction 0.000000 -0.258819 0.965926
      length 4.922846
      axis 15.0 0.0 0.0 xyz
      dof rx ry rz
   end
   begin
      id 30
      name RightToeBase
      direction 0.000000 0.000000 1.000000
      length 2.952750
      axis 0.0 0.0 0.0 xyz
      dof rx ry rz
   end
:hierarchy
   begin
      root Spine_dum LeftUpLeg_dum RightUpLeg_dum
      Spine_dum Spine
      LeftUpLeg_dum LeftUpLeg
      RightUpLeg_dum RightUpLeg
      Spine Spine_dum1 Spine_dum2 Spine_dum3
      Spine_dum1 Head
      Spine_dum2 LeftShoulder
      Spine_dum3 RightShoulder
      LeftShoulder LeftArm
      LeftArm LeftForeArm
      LeftForeArm LeftHand
      LeftHand LeftHand_dum1 LeftHand_dum2
      LeftHand_dum1 LeftHandThumb1
      RightShoulder RightArm
      RightArm RightForeArm
      RightForeArm RightHand
      RightHand RightHand_dum1 RightHand_dum2
      RightHand_dum1 RightHandThumb1
      LeftUpLeg LeftLeg
      LeftLeg LeftFoot
      LeftFoot LeftToeBase
      RightUpLeg RightLeg
      RightLeg RightFoot
      RightFoot RightToeBase
   end

# File created by Blade
# Date/Time:  Fri Jan 16 17:25:22 2015
# Frame Rate: 120.000 fps
#------------------------------------------------------
:FULLY-SPECIFIED
:DEGREES
287
root -5.910030 35.255489 -10.798523 -3.215227 -8.331624 -6.180118
Spine 3.629855 1.170066 9.329754
Head 2.617789 7.173848 -3.165242
LeftShoulder -19.869128 14.868763 -15.093665
LeftArm 26.107409 12.596252 -66.957656
LeftForeArm 9.759400 -0.000000 15.160273
LeftHand 1.020718 -0.000000 -7.193979
LeftHandThumb1 -26.253704 0.000000 33.147579
RightShoulder -3.177460 -2.267143 3.325154
RightArm 10.086506 -35.151183 66.086038
RightForeArm -22.178547 -0.000000 24.852141
RightHand 1.744331 -0.000000 6.434992
RightHandThumb1 -24.326973 -0.000000 -32.862282
LeftUpLeg 12.556105 17.198617 8.846268
LeftLeg -8.681638 -0.000000 0.000000
LeftFoot -14.608474 28.100796 -7.658424
LeftToeBase 23.064589 -0.000000 -0.000000
RightUpLeg 8.316433 -5.228879 3.149963
RightLeg -4.078363 -0.000000 0.000000
RightFoot -3.602762 -22.689145 5.381830
RightToeBase 13.672365 -0.000000 -0.000000
288
root -5.912781 35.255354 -10.796800 -3.186254 -8.416219 -6.193747
Spine 3.611899 1.188566 9.337070
Head 2.670963 7.173698 -3.195200
LeftShoulder -19.918692 14.941301 -15.122063
LeftArm 26.107260 12.545761 -66.790862
LeftForeArm 9.980830 -0.000000 15.100720
LeftHand 1.067679 -0.000000 -7.205050
LeftHandThumb1 -26.253704 0.000000 33.147579
RightShoulder -3.158793 -2.282734 3.351328
RightArm 9.990912 -35.150819 66.156802
RightForeArm -22.069632 -0.000000 24.800467
RightHand 1.666767 -0.000000 6.249217
RightHandThumb1 -24.326973 -0.000000 -32.862282
LeftUpLeg 12.568782 17.266575 8.867054
LeftLeg -8.704102 -0.000000 0.000000
LeftFoot -14.619567 28.101044 -7.676953
LeftToeBase 23.084007 -0.000000 -0.000000
RightUpLeg 8.280072 -5.147004 3.176272
RightLeg -4.066360 -0.000000 0.000000
RightFoot -3.598591 -22.695873 5.357069
RightToeBase 13.715447 -0.000000 -0.000000
289
root -5.912784 35.254491 -10.793503 -3.168279 -8.464841 -6.199021
Spine 3.604226 1.152443 9.342588
Head 2.701718 7.192682 -3.236591
LeftShoulder -19.991778 14.967254 -15.145474
LeftArm 26.062629 12.545554 -66.643188
LeftForeArm 10.028615 0.000000 15.028083
LeftHand 1.063342 0.000000 -7.092041
LeftHandThumb1 -26.253704 0.000000 33.147579
RightShoulder -3.155340 -2.348683 3.379372
RightArm 10.019643 -35.223243 66.125066
RightForeArm -22.020740 -0.000000 24.757506
RightHand 1.756852 -0.000000 6.488894
RightHandThumb1 -24.326973 -0.000000 -32.862282
LeftUpLeg 12.583367 17.296265 8.873138
LeftLeg -8.731599 -0.000000 0.000000
LeftFoot -14.609444 28.124281 -7.668338
LeftToeBase 23.073467 -0.000000 -0.000000
RightUpLeg 8.264393 -5.107897 3.183435
RightLeg -4.064525 -0.000000 0.000000
RightFoot -3.597391 -22.691500 5.353114
RightToeBase 13.700971 -0.000000 -0.000000
290
root -5.914193 35.254048 -10.789798 -3.158764 -8.510031 -6.201277
Spine 3.601112 1.129348 9.339796
Head 2.735199 7.224437 -3.264175
LeftShoulder -20.027908 15.024640 -15.165425
LeftArm 26.002395 12.455675 -66.541781
LeftForeArm 9.979207 0.000000 14.987036
LeftHand 1.094405 -0.000000 -7.084861
LeftHandThumb1 -26.253704 0.000000 33.147579
RightShoulder -3.160359 -2.377791 3.404736
RightArm 10.001656 -35.245014 66.155259
RightForeArm -21.937944 -0.000000 24.687224
RightHand 1.716000 0.000000 6.653247
RightHandThumb1 -24.326973 -0.000000 -32.862282
LeftUpLeg 12.601216 17.285602 8.874592
LeftLeg -8.744621 -0.000000 0.000000
LeftFoot -14.617144 28.157536 -7.701958
LeftToeBase 23.024939 -0.000000 -0.000000
RightUpLeg 8.259252 -5.059707 3.191204
RightLeg -4.066631 -0.000000 0.000000
RightFoot -3.603703 -22.699865 5.344405
RightToeBase 13.722855 -0.000000 -0.000000
291
root -5.915806 35.253561 -10.787121 -3.147770 -8.561754 -6.208545
Spine 3.602219 1.113321 9.339002
Head 2.758201 7.244778 -3.280233
LeftShoulder -20.066472 15.079406 -15.173865
LeftArm 25.943806 12.363485 -66.461967
LeftForeArm 10.145503 -0.000000 14.947066
LeftHand 1.125976 0.000000 -7.137258
LeftHandThumb1 -26.253704 0.000000 33.147579
RightShoulder -3.159425 -2.401333 3.437678
RightArm 9.974076 -35.279261 66.185039
RightForeArm -21.929775 0.000000 24.604797
RightHand 1.761432 -0.000000 6.673943
RightHandThumb1 -24.326973 -0.000000 -32.862282
LeftUpLeg 12.618303 17.315782 8.887457
LeftLeg -8.759467 -0.000000 0.000000
LeftFoot -14.618896 28.172338 -7.707897
LeftToeBase 23.032775 -0.000000 -0.000000
RightUpLeg 8.249903 -5.000919 3.204536
RightLeg -4.066160 -0.000000 0.000000
RightFoot -3.597105 -22.703372 5.355052
RightToeBase 13.678107 -0.000000 -0.000000
292
root -5.919857 35.253424 -10.778666 -3.178166 -8.656967 -6.219276
Spine 3.649141 1.135956 9.335759
Head 2.788727 7.269801 -3.281582
LeftShoulder -20.097859 15.127987 -15.169237
LeftArm 25.863789 12.274912 -66.413633
LeftForeArm 10.147636 -0.000000 14.907464
LeftHand 1.103566 -0.000000 -6.981345
LeftHandThumb1 -26.253704 0.000000 33.147579
RightShoulder -3.166102 -2.434439 3.481363
RightArm 9.954705 -35.264974 66.217105
RightForeArm -21.962745 -0.000000 24.536636
RightHand 1.672450 -0.000000 6.587959
RightHandThumb1 -24.326973 -0.000000 -32.862282
LeftUpLeg 12.703468 17.146525 8.892159
LeftLeg -8.783295 -0.000000 0.000000
LeftFoot -14.695389 28.386945 -7.829296
LeftToeBase 23.029536 -0.000000 -0.000000
RightUpLeg 8.293557 -4.909120 3.222069
RightLeg -4.073194 -0.000000 0.000000
RightFoot -3.591104 -22.706292 5.340026
RightToeBase 13.684943 -0.000000 -0.000000
293
root -5.919843 35.252743 -10.775191 -3.169268 -8.711753 -6.228934
Spine 3.658351 1.113541 9.345694
Head 2.794986 7.291931 -3.308840
LeftShoulder -20.154609 15.199814 -15.202440
LeftArm 25.824484 12.188849 -66.352446
LeftForeArm 10.251282 -0.000000 14.856572
LeftHand 1.050665 0.000000 -6.897609
LeftHandThumb1 -26.253704 0.000000 33.147579
RightShoulder -3.166553 -2.456818 3.510051
RightArm 9.927057 -35.227775 66.239731
RightForeArm -21.853625 -0.000000 24.513367
RightHand 1.752035 -0.000000 7.015250
RightHandThumb1 -24.326973 -0.000000 -32.862282
LeftUpLeg 12.730765 17.173432 8.906855
LeftLeg -8.805674 -0.000000 0.000000
LeftFoot -14.683861 28.399409 -7.808388
LeftToeBase 23.013058 -0.000000 -0.000000
RightUpLeg 8.287080 -4.851452 3.233349
RightLeg -4.069908 -0.000000 0.000000
RightFoot -3.594153 -22.703032 5.342407
RightToeBase 13.696528 -0.000000 -0.000000
294
root -5.917060 35.252009 -10.775196 -3.153580 -8.762557 -6.236755
Spine 3.675536 1.100023 9.364693
Head 2.766147 7.325485 -3.331616
LeftShoulder -20.201067 15.249421 -15.235263
LeftArm 25.772862 12.142901 -66.291369
LeftForeArm 10.176038 0.000000 14.820380
LeftHand 1.039463 -0.000000 -6.802823
LeftHandThumb1 -26.253704 0.000000 33.147579
RightShoulder -3.156290 -2.469493 3.525265
RightArm 9.898252 -35.201832 66.259283
RightForeArm -21.702344 -0.000000 24.463227
RightHand 1.845802 0.000000 7.404849
RightHandThumb1 -24.326973 -0.000000 -32.862282
LeftUpLeg 12.746349 17.299831 8.924119
LeftLeg -8.840823 -0.000000 0.000000
LeftFoot -14.653315 28.341870 -7.771350
LeftToeBase 23.038918 -0.000000 -0.000000
RightUpLeg 8.256900 -4.811779 3.239517
RightLeg -4.047505 -0.000000 0.000000
RightFoot -3.606580 -22.692581 5.338125
RightToeBase 13.720250 -0.000000 -0.000000
295
root -5.916328 35.251733 -10.775811 -3.116128 -8.787059 -6.243941
Spine 3.649306 1.061581 9.366522
Head 2.795035 7.340714 -3.373191
LeftShoulder -20.247650 15.303483 -15.255033
LeftArm 25.685736 12.008639 -66.296420
LeftForeArm 10.337529 -0.000000 14.809012
LeftHand 1.007817 -0.000000 -6.676969
LeftHandThumb1 -26.253704 0.000000 33.147579
RightShoulder -3.173842 -2.494372 3.570252
RightArm 9.913481 -35.248035 66.215470
RightForeArm -21.531861 -0.000000 24.450548
RightHand 1.779764 -0.000000 7.538525
RightHandThumb1 -24.326973 -0.000000 -32.862282
LeftUpLeg 12.715882 17.396840 8.932545
LeftLeg -8.841570 -0.000000 0.000000
LeftFoot -14.654539 28.280871 -7.743346
LeftToeBase 23.053729 -0.000000 -0.000000
RightUpLeg 8.210705 -4.770027 3.250369
RightLeg -4.034421 -0.000000 0.000000
RightFoot -3.606257 -22.697971 5.343749
RightToeBase 13.748210 -0.000000 -0.000000
296
root -5.914162 35.251163 -10.776057 -3.085308 -8.828189 -6.248276
Spine 3.632039 1.058060 9.376045
Head 2.801589 7.369966 -3.389237
LeftShoulder -20.276251 15.352261 -15.272986
LeftArm 25.603357 11.891045 -66.308838
LeftForeArm 10.291952 -0.000000 14.752277
LeftHand 0.944830 -0.000000 -6.945568
LeftHandThumb1 -26.253704 0.000000 33.147579
RightShoulder -3.207294 -2.658801 3.599154
RightArm 10.088814 -35.265359 66.086323
RightForeArm -21.446575 -0.000000 24.454432
RightHand 1.571251 0.000000 7.341045
RightHandThumb1 -24.326973 -0.000000 -32.862282
LeftUpLeg 12.703573 17.467808 8.932762
LeftLeg -8.857851 -0.000000 0.000000
LeftFoot -14.648020 28.272131 -7.737414
LeftToeBase 23.040782 -0.000000 -0.000000
RightUpLeg 8.171847 -4.746509 3.256778
RightLeg -4.023728 -0.000000 0.000000
RightFoot -3.612921 -22.694464 5.346453
RightToeBase 13.719615 -0.000000 -0.000000
297
root -5.912238 35.250883 -10.776354 -3.058334 -8.872858 -6.255417
Spine 3.627068 1.059883 9.385957
Head 2.802992 7.399792 -3.405714
LeftShoulder -20.319126 15.394923 -15.290657
LeftArm 25.528780 11.755534 -66.342221
LeftForeArm 10.283703 -0.000000 14.708250
LeftHand 0.888409 -0.000000 -6.934014
LeftHandThumb1 -26.253704 0.000000 33.147579
RightShoulder -3.227264 -2.671201 3.632979
RightArm 10.092089 -35.261695 66.059999
RightForeArm -21.260227 -0.000000 24.435262
RightHand 1.721734 -0.000000 7.877971
RightHandThumb1 -24.326973 -0.000000 -32.862282
LeftUpLeg 12.697011 17.540469 8.939335
LeftLeg -8.873192 -0.000000 0.000000
LeftFoot -14.637793 28.244844 -7.726036
LeftToeBase 23.053187 -0.000000 -0.000000
RightUpLeg 8.136654 -4.700913 3.262919
RightLeg -4.012767 -0.000000 0.000000
RightFoot -3.605706 -22.679303 5.358131
RightToeBase 13.680297 -0.000000 -0.000000
298
root -5.909989 35.250629 -10.774996 -3.046801 -8.918726 -6.260915
Spine 3.642223 1.050002 9.395421
Head 2.788050 7.447530 -3.423889
LeftShoulder -20.377105 15.439729 -15.319895
LeftArm 25.467146 11.638854 -66.384943
LeftForeArm 10.225272 -0.000000 14.651337
LeftHand 1.121130 -0.000000 -6.714636
LeftHandThumb1 -26.253704 0.000000 33.147579
RightShoulder -3.237102 -2.675434 3.652905
RightArm 10.086611 -35.247554 66.040773
RightForeArm -21.108846 -0.000000 24.437191
RightHand 1.653885 -0.000000 7.997218
RightHandThumb1 -24.326973 -0.000000 -32.862282
LeftUpLeg 12.704766 17.577142 8.942981
LeftLeg -8.879075 -0.000000 0.000000
LeftFoot -14.645999 28.243436 -7.721628
LeftToeBase 23.046215 -0.000000 -0.000000
RightUpLeg 8.119220 -4.685206 3.265107
RightLeg -4.002445 -0.000000 0.000000
RightFoot -3.597382 -22.655644 5.343620
RightToeBase 13.665484 -0.000000 -0.000000
299
root -5.908022 35.250359 -10.774697 -3.035544 -8.947997 -6.268321
Spine 3.653362 1.031407 9.406057
Head 2.776701 7.513105 -3.424302
LeftShoulder -20.410958 15.465643 -15.329574
LeftArm 25.354844 11.497306 -66.464211
LeftForeArm 10.325902 -0.000000 14.621037
LeftHand 1.121794 -0.000000 -6.751709
LeftHandThumb1 -26.253704 0.000000 33.147579
RightShoulder -3.246791 -2.702996 3.656993
RightArm 10.098909 -35.233362 66.019160
RightForeArm -21.137582 -0.000000 24.484549
RightHand 1.489352 -0.000000 7.595128
RightHandThumb1 -24.326973 -0.000000 -32.862282
LeftUpLeg 12.704279 17.592000 8.945052
LeftLeg -8.883455 -0.000000 0.000000
LeftFoot -14.648139 28.261687 -7.718679
LeftToeBase 23.037574 -0.000000 -0.000000
RightUpLeg 8.105939 -4.683162 3.271413
RightLeg -4.003135 -0.000000 0.000000
RightFoot -3.584940 -22.641468 5.321347
RightToeBase 13.687900 -0.000000 -0.000000
